<?xml version="1.0" encoding="utf-8"?>
<!-- Generator: Adobe Illustrator 16.0.0, SVG Export Plug-In . SVG Version: 6.00 Build 0)  -->
<!DOCTYPE svg PUBLIC "-//W3C//DTD SVG 1.1//EN" "http://www.w3.org/Graphics/SVG/1.1/DTD/svg11.dtd">
<svg version="1.1" id="Icons" xmlns="http://www.w3.org/2000/svg" xmlns:xlink="http://www.w3.org/1999/xlink" x="0px" y="0px"
	 width="36px" height="36px" viewBox="0 0 36 36" enable-background="new 0 0 36 36" xml:space="preserve">
<path fill="#232424" d="M18.558,6.076c-6.508,0-9.79,4.667-9.79,8.558c0,2.356,0.892,4.451,2.806,5.234
	c0.314,0.128,0.593,0.002,0.685-0.344c0.065-0.241,0.214-0.846,0.281-1.098c0.091-0.345,0.055-0.466-0.197-0.764
	c-0.553-0.652-0.904-1.495-0.904-2.688c0-3.461,2.588-6.559,6.746-6.559c3.677,0,5.697,2.247,5.697,5.249
	c0,3.949-1.747,7.284-4.343,7.284c-1.434,0-2.505-1.188-2.162-2.64c0.411-1.734,1.21-3.609,1.21-4.861
	c0-1.121-0.603-2.056-1.849-2.056c-1.466,0-2.643,1.514-2.643,3.546c0,1.292,0.438,2.167,0.438,2.167s-1.5,6.351-1.762,7.464
	c-0.524,2.216-0.078,4.93-0.042,5.206c0.023,0.164,0.232,0.201,0.325,0.077c0.137-0.174,1.88-2.33,2.474-4.482
	c0.17-0.609,0.964-3.764,0.964-3.764c0.477,0.907,1.867,1.708,3.346,1.708c4.403,0,7.392-4.015,7.392-9.389
	C27.231,9.859,23.789,6.076,18.558,6.076z"/>
</svg>
