<?xml version="1.0" encoding="utf-8"?>
<!-- Generator: Adobe Illustrator 16.0.0, SVG Export Plug-In . SVG Version: 6.00 Build 0)  -->
<!DOCTYPE svg PUBLIC "-//W3C//DTD SVG 1.1//EN" "http://www.w3.org/Graphics/SVG/1.1/DTD/svg11.dtd">
<svg version="1.1" id="Icons" xmlns="http://www.w3.org/2000/svg" xmlns:xlink="http://www.w3.org/1999/xlink" x="0px" y="0px"
	 width="36px" height="36px" viewBox="0 0 36 36" enable-background="new 0 0 36 36" xml:space="preserve">
<g>
	<path fill="#232424" d="M17.778,9.498c4.844,2.559,11.301,8.923,11.301,19.556l-4.164-0.076c0-6.617-4.165-12.938-9.293-15.688
		c-4.238-2.273-8.612-2.169-8.655-2.168l0.028-4.226C7.206,6.891,12.423,6.674,17.778,9.498z M12.387,15.261
		c-2.655-1.096-5.413-1.003-5.466-1.003l0.046,4.386c0.028,0,9.474-0.222,10.439,10.417l4.163,0.049
		C21.309,21.21,16.589,16.934,12.387,15.261z M9.971,23.032c-1.663,0-3.011,1.347-3.011,3.009c0,1.665,1.348,3.013,3.011,3.013
		c1.663,0,3.011-1.348,3.011-3.013C12.981,24.379,11.633,23.032,9.971,23.032z"/>
</g>
</svg>
