<!DOCTYPE svg PUBLIC "-//W3C//DTD SVG 1.1//EN" "http://www.w3.org/Graphics/SVG/1.1/DTD/svg11.dtd">
<svg version="1.1" id="Icons" xmlns="http://www.w3.org/2000/svg" xmlns:xlink="http://www.w3.org/1999/xlink" x="0px" y="0px"
	 width="36px" height="36px" viewBox="0 0 36 36" enable-background="new 0 0 36 36" xml:space="preserve">
<path fill="#232424" d="M31.25,9.781c-0.973,0.431-2.019,0.725-3.122,0.854c1.125-0.672,1.987-1.739,2.391-3.009
	c-1.05,0.626-2.215,1.08-3.451,1.323c-0.993-1.061-2.406-1.718-3.969-1.718c-3.003,0-5.438,2.432-5.438,5.435
	c0,0.425,0.048,0.843,0.141,1.238c-4.521-0.226-8.524-2.389-11.207-5.68c-0.47,0.804-0.735,1.738-0.735,2.734
	c0,1.886,0.959,3.55,2.417,4.526c-0.889-0.025-1.731-0.271-2.462-0.678c0,0.021,0,0.043,0,0.065c0,2.636,1.872,4.834,4.361,5.333
	c-0.456,0.123-0.936,0.191-1.431,0.191c-0.352,0-0.691-0.033-1.026-0.099c0.695,2.161,2.7,3.731,5.082,3.776
	c-1.86,1.458-4.205,2.328-6.754,2.328c-0.438,0-0.872-0.025-1.295-0.077c2.404,1.543,5.264,2.441,8.333,2.441
	c10.001,0,15.471-8.284,15.471-15.47c0-0.235-0.004-0.469-0.017-0.703C29.601,11.833,30.527,10.871,31.25,9.781z"/>
</svg>
